<svg width="2363" height="388" viewBox="0 0 2363 388" fill="none" xmlns="http://www.w3.org/2000/svg">
  <path
    d="M355.067 312.985V154.185H305.442V115.037H355.067V46.665H401.384V115.588H478.578V154.737H401.384V305.265C401.384 320.153 404.141 330.078 409.654 334.489C415.168 339.451 424.542 341.657 437.224 341.657C447.7 341.657 454.868 341.106 459.279 340.554C463.69 340.003 471.961 339.451 473.064 339.451H478.578V379.151C462.588 381.908 441.635 383.562 426.747 383.562C378.777 383.011 355.067 359.853 355.067 312.985Z"
    fill="white" />
  <path
    d="M529.318 361.507C512.225 344.414 503.403 318.499 503.403 283.762V115.589H549.72V279.351C549.72 300.855 555.785 317.948 567.364 330.078C578.943 342.209 594.382 348.825 613.681 348.825C634.633 348.825 652.278 342.209 665.511 329.527C678.744 316.294 685.361 299.201 685.361 277.145V115.589H731.677V380.255H685.361V346.62H678.744C661.651 374.189 635.185 387.974 599.345 387.974C570.121 387.423 546.963 379.152 529.318 361.507Z"
    fill="white" />
  <path
    d="M75.54 373.664C52.9331 364.841 35.2888 351.608 22.0555 334.515C8.2708 316.871 1.10277 296.47 0 272.76H54.0359C57.8956 294.264 67.8206 311.357 83.8108 324.039C99.801 336.721 121.856 343.337 149.977 343.337C175.341 343.337 196.294 338.375 212.284 327.899C228.274 317.422 236.545 301.983 236.545 281.031C236.545 262.835 230.48 249.05 218.349 239.677C206.219 229.752 186.92 222.032 159.351 216.518L121.305 208.799C86.5677 201.631 58.9984 188.949 39.1485 171.856C19.2985 154.763 9.37358 132.708 9.37358 106.241C9.37358 85.8397 14.8874 67.644 26.4666 51.6537C37.4943 35.6635 53.4845 23.533 74.4372 14.7108C95.3899 5.88863 118.548 1.47754 145.015 1.47754C173.687 1.47754 199.051 6.99141 219.452 18.0191C240.405 29.0469 255.843 43.3829 266.871 61.0273C277.899 78.6717 282.861 96.8675 282.31 115.615H229.928C229.377 102.381 225.517 89.6994 217.798 78.6717C210.078 67.644 199.602 58.8218 186.369 52.7565C173.135 46.6913 158.799 43.3829 142.809 43.3829C119.1 43.3829 99.801 48.3454 84.9136 58.8218C70.0261 69.2981 62.3067 83.6342 62.3067 102.381C62.3067 114.512 64.5123 124.437 69.4747 131.605C74.4372 139.324 82.708 145.389 93.7358 150.903C104.763 155.866 120.754 160.828 140.052 164.688L178.098 172.407C215.592 180.127 243.162 192.257 261.909 209.35C280.104 226.443 289.478 249.05 289.478 277.722C289.478 300.881 283.413 320.179 270.731 336.721C258.6 352.711 241.507 365.393 220.003 373.664C198.499 381.934 174.79 386.346 147.772 386.346C122.408 387.448 97.5955 383.037 75.54 373.664Z"
    fill="white" />
  <path
    d="M1175.01 368.684C1154.61 356.002 1139.17 338.909 1128.69 317.405C1117.67 295.901 1112.7 272.743 1112.7 247.93C1112.7 222.566 1118.22 199.408 1128.69 177.904C1139.72 156.951 1155.16 139.858 1175.01 127.176C1195.41 114.495 1219.12 107.878 1246.69 107.878C1273.71 107.878 1297.42 114.495 1317.82 127.176C1338.22 139.858 1353.66 156.951 1364.14 178.455C1375.16 199.96 1380.13 223.118 1380.13 247.93C1380.13 273.294 1374.61 296.452 1364.14 317.956C1353.11 338.909 1337.67 356.002 1317.82 368.684C1297.42 381.366 1273.71 387.982 1246.14 387.982C1219.12 387.431 1195.41 381.366 1175.01 368.684ZM1310.65 320.713C1324.99 301.415 1332.16 277.154 1332.16 247.93C1332.16 218.155 1324.99 193.343 1310.1 174.596C1295.21 155.297 1274.26 145.924 1246.69 145.924C1218.57 145.924 1197.07 155.297 1182.73 174.596C1168.39 193.894 1161.23 218.155 1161.23 247.93C1161.23 277.705 1168.39 302.517 1183.28 321.265C1198.17 340.012 1219.12 349.385 1246.69 349.385C1274.81 349.385 1295.76 340.012 1310.65 320.713Z"
    fill="white" />
  <path
    d="M1499.77 321.265C1505.28 304.723 1514.66 288.733 1528.44 273.294C1542.22 257.855 1561.52 241.865 1586.89 224.772C1599.02 217.052 1607.84 211.539 1613.9 207.679C1631 197.202 1645.33 187.829 1655.26 180.11C1665.74 172.39 1674.01 163.568 1681.17 152.54C1688.34 142.064 1691.65 129.382 1691.65 115.046C1691.65 92.9904 1685.03 75.346 1672.35 62.1127C1659.67 48.8795 1640.92 41.7114 1616.11 41.7114C1601.77 41.7114 1587.99 45.5711 1575.86 52.7392C1563.73 59.9072 1553.8 69.8322 1546.64 81.9627C1539.47 94.0932 1536.16 107.326 1536.16 121.111H1487.09C1487.09 98.5043 1492.05 78.6543 1502.52 59.9072C1513 41.7114 1527.89 26.824 1547.19 16.3476C1566.49 5.87129 1589.64 0.357422 1615.56 0.357422C1655.81 0.357422 1687.24 10.8338 1708.74 30.6837C1730.8 51.085 1741.28 78.6544 1741.28 112.84C1741.28 134.344 1736.31 153.092 1725.84 169.082C1715.36 185.623 1703.23 198.857 1689.44 209.884C1675.66 220.912 1657.46 233.043 1635.96 246.276C1628.79 250.687 1619.42 256.201 1609.49 262.818C1590.2 276.051 1575.86 288.181 1565.38 299.76C1554.91 311.34 1548.29 323.47 1545.53 336.152H1745.13V379.712H1491.5C1492.05 357.656 1494.25 337.806 1499.77 321.265Z"
    fill="white" />
  <path
    d="M1838.87 363.179C1816.26 346.638 1799.72 324.031 1788.14 295.359C1776.56 266.686 1771.05 233.603 1771.05 196.66C1771.05 158.615 1776.56 124.429 1788.14 94.6537C1799.72 64.8788 1816.82 41.7206 1838.87 25.7304C1861.48 9.18876 1887.94 0.917969 1919.93 0.917969C1950.8 0.917969 1977.27 9.18876 1999.32 25.7304C2021.38 42.272 2038.47 65.4302 2049.5 94.6537C2061.08 123.877 2066.59 158.063 2066.59 196.109C2066.59 233.052 2061.08 266.135 2049.5 294.807C2037.92 323.479 2021.38 346.637 1999.32 362.628C1977.27 379.169 1950.8 387.44 1919.93 387.44C1888.5 387.991 1861.48 379.721 1838.87 363.179ZM1991.05 304.732C2007.04 278.817 2014.76 242.977 2014.76 197.212C2014.76 149.241 2007.04 111.747 1991.05 85.2802C1975.06 58.8136 1951.35 45.5803 1918.82 45.5803C1886.29 45.5803 1862.58 58.8136 1847.14 85.2802C1831.7 111.747 1823.98 149.241 1823.98 197.212C1823.98 243.528 1831.7 279.368 1847.14 304.732C1862.58 330.647 1886.84 343.329 1918.82 343.329C1951.35 343.329 1975.06 330.096 1991.05 304.732Z"
    fill="white" />
  <path
    d="M1837.77 362.619C1815.17 346.077 1798.62 323.47 1787.05 294.798C1775.47 266.126 1769.95 233.043 1769.95 196.1C1769.95 158.054 1775.47 123.868 1787.05 94.0932C1798.62 64.3183 1815.72 41.16 1837.77 25.1698C1860.38 8.62821 1886.85 0.357422 1918.83 0.357422C1949.7 0.357422 1976.17 8.62821 1998.23 25.1698C2020.28 41.7114 2037.37 64.8697 2048.4 94.0932C2059.98 123.317 2065.5 157.503 2065.5 195.548C2065.5 232.491 2059.98 265.574 2048.4 294.247C2036.82 322.919 2020.28 346.077 1998.23 362.067C1976.17 378.609 1949.7 386.88 1918.83 386.88C1887.4 387.431 1860.38 379.16 1837.77 362.619ZM1989.96 304.172C2005.95 278.256 2013.67 242.416 2013.67 196.651C2013.67 148.68 2005.95 111.186 1989.96 84.7196C1973.97 58.253 1950.26 45.0198 1917.72 45.0198C1885.19 45.0198 1861.48 58.253 1846.04 84.7196C1830.6 111.186 1822.89 148.68 1822.89 196.651C1822.89 242.968 1830.6 278.808 1846.04 304.172C1861.48 330.087 1885.74 342.769 1917.72 342.769C1950.26 342.769 1973.97 329.535 1989.96 304.172Z"
    fill="white" />
  <path
    d="M2182.38 379.721C2167.49 374.207 2154.26 366.487 2143.78 356.562C2111.8 327.339 2095.81 274.406 2095.81 198.314C2095.81 124.98 2110.7 71.4955 2141.02 38.9637C2164.18 13.5999 2194.51 0.917969 2232 0.917969C2258.47 0.917969 2280.52 5.88044 2298.17 15.8054C2315.81 25.7304 2329.6 38.4123 2339.52 53.8511C2348.9 69.2899 2354.96 86.3829 2356.61 104.579H2307.54C2304.78 85.8315 2296.51 70.9441 2283.28 59.365C2270.05 48.3372 2252.4 42.8234 2229.8 42.8234C2211.05 42.8234 2195.06 48.8886 2181.82 61.5705C2168.59 74.2524 2158.67 90.2426 2152.05 110.644C2145.43 131.045 2142.13 152.549 2142.13 175.708V183.978H2148.74C2155.36 171.296 2166.94 160.269 2184.03 150.895C2201.12 140.97 2219.32 136.008 2238.07 136.008C2266.19 136.008 2289.9 141.522 2308.09 153.101C2326.29 164.68 2340.07 179.567 2348.9 198.314C2357.72 217.062 2362.13 237.463 2362.13 260.07C2362.13 280.471 2357.72 300.872 2348.9 320.171C2340.07 339.469 2325.74 356.011 2305.89 368.693C2286.04 381.375 2261.22 387.992 2230.9 387.992C2213.25 387.992 2197.26 385.235 2182.38 379.721ZM2291 324.031C2304.23 308.592 2311.4 287.639 2311.4 260.07C2311.4 233.603 2304.78 212.651 2291 197.763C2277.77 182.876 2257.36 175.156 2230.35 175.156C2207.19 175.156 2187.89 182.876 2173 198.866C2158.12 214.856 2150.4 235.257 2150.4 260.07C2150.4 276.611 2154.26 290.947 2161.42 304.732C2168.59 317.965 2178.52 328.442 2190.65 335.61C2202.78 343.329 2216.01 346.638 2229.8 346.638C2257.36 346.638 2277.77 339.469 2291 324.031Z"
    fill="white" />
  <path
    d="M812.176 369.804C793.98 357.673 780.195 341.132 770.27 320.179C760.345 299.226 755.383 274.965 755.383 247.947C755.383 219.275 760.345 193.911 770.822 172.959C781.298 152.006 795.634 136.016 814.381 124.988C833.128 113.96 854.081 108.446 877.239 108.446C893.781 108.446 909.22 112.306 923.556 119.474C937.892 126.642 948.368 136.567 954.985 148.698H961.05V4.23438H1007.37V380.28H961.05V344.991H954.985C944.508 359.327 932.929 370.355 920.247 377.523C907.566 384.691 892.127 388 874.482 388C850.773 387.448 830.371 381.383 812.176 369.804ZM942.303 321.282C956.088 302.535 963.256 277.722 963.256 247.947C963.256 218.172 956.088 193.36 942.303 174.613C928.518 155.866 907.566 146.492 880.548 146.492C856.838 146.492 838.091 156.417 824.858 175.716C811.073 195.014 804.456 219.275 804.456 247.947C804.456 276.619 811.073 300.88 824.858 320.73C838.642 340.029 856.838 349.954 880.548 349.954C907.566 349.403 928.518 340.029 942.303 321.282Z"
    fill="white" />
  <path d="M1038.79 4.23438H1088.41V53.8592H1038.79V4.23438ZM1040.99 115.615H1086.76V380.28H1040.99V115.615Z"
    fill="white" />
</svg>